<svg xmlns="http://www.w3.org/2000/svg" xmlns:xlink="http://www.w3.org/1999/xlink" width="48px"
                height="48px" viewBox="0 0 48 48" version="1.1">
                <title>Pay/White/yandexmoney</title>
                <desc>Created with Sketch.</desc>
                <g id="Pay/White/yandexmoney" stroke="none" stroke-width="1" fill="none" fill-rule="evenodd">
                    <path
                        d="M24.3224044,22 C23,22 23,21.6923077 23,20.4615385 C23,19.5384615 23.9918033,18 25.6448087,18 C28.2896175,18 26.636612,22 24.3224044,22 Z M9.02438512,37.1351351 C9.02438512,38.9189189 10.5179735,41 12.3102796,41 L35.3115409,41 C36.8051293,41 38,40.1081081 38,38.6216216 L38,21.3783784 C38,20.1891892 37.103847,19.2972973 35.9089762,19.2972973 L33.5192348,19.2972973 L33.5192348,30.2972973 C33.5192348,31.1891892 32.9217995,32.0810811 32.3243641,32.3783784 C31.4282111,32.972973 31.1294934,33.2702703 29.9346227,33.5675676 L19.7782216,36.5405405 C17.6871978,37.1351351 15.2974564,38.027027 13.5051503,37.7297297 C13.2064326,36.2432432 14.700021,35.9459459 16.1936094,35.3513514 L25.1551398,32.0810811 C27.2461635,31.1891892 31.1294934,30 31.1294934,27.6216216 L31.1294934,9.48648649 C31.1294934,8.59459459 30.2333403,8 29.3371873,8 C28.1423166,8 23.9602691,10.6756757 22.7653984,11.2702703 L20.6743746,12.4594595 C19.1807862,13.0540541 11.1154089,17.5135135 10.2192558,18.4054054 C8.72566744,19.8918919 9.02438512,21.3783784 9.02438512,24.0540541 C9.02438512,28.5135135 9.02438512,32.6756757 9.02438512,37.1351351 Z"
                        id="Shape" fill="#9298a8" />
                </g>
            </svg>