
<svg xmlns="http://www.w3.org/2000/svg" xmlns:xlink="http://www.w3.org/1999/xlink" width="48px" height="48px" viewBox="0 0 48 48" version="1.1">
    <!-- Generator: Sketch 53 (72520) - https://sketchapp.com -->
    <title>Pay/White/webmoney</title>
    <desc>Created with Sketch.</desc>
    <g id="Pay/White/webmoney" stroke="none" stroke-width="1" fill="none" fill-rule="evenodd">
        <path d="M23.9286346,9 C26.2691386,9 28.4959524,9.54450807 30.4942008,10.5185349 C30.8075912,10.662104 31.123022,10.8339328 31.4353772,11.005914 L30.0652149,12.2383468 L28.0111416,10.0891685 L24.4717457,13.2409382 L22.3874871,10.9769077 L15.8790661,16.8513701 L20.045963,21.4648352 L18.4192553,22.8972196 L22.5303274,27.5106846 L20.9034696,28.9424749 L26.7841046,35.5045726 L30.2646002,32.2950797 L33.2917905,35.7345664 C32.6918344,36.1930915 32.0353183,36.6525002 31.3225422,37.0529974 C29.1527235,38.2849885 26.6403642,39 23.9574697,39 C15.7071807,39 9.00009455,32.2675512 9.00009455,23.9871193 C8.97095939,15.7626434 15.6792307,9 23.9286346,9 Z M21.1878599,23.0695054 L24.756121,19.8600126 L27.9538615,23.4417276 L24.3848653,26.6509158 L21.1878599,23.0695054 Z M23.7290844,29.2590763 L27.2683303,26.0211713 L30.4942008,29.6025969 L26.9257897,32.8122421 L23.7290844,29.2590763 Z M18.6488409,16.9663746 L22.2160668,13.7568818 L25.4130722,17.3385968 L21.8446611,20.5479373 L18.6488409,16.9663746 Z M25.1843717,15.2465475 L27.8392862,12.8396945 L30.2376554,15.5046792 L27.5827409,17.9399597 L25.1843717,15.2465475 Z M29.9233948,26.2785413 L32.5774242,23.8715359 L34.9756583,26.5643387 L32.3205938,28.9728371 L29.9233948,26.2785413 Z M32.2637487,31.6947985 L34.9188132,29.2873513 L37.315142,31.9521838 L34.6611127,34.3871595 L32.2637487,31.6947985 Z M33.3486656,19.3155045 L35.1182135,17.7106819 L36.7162061,19.4879275 L34.9469432,21.092156 L33.3486656,19.3155045 Z M31.0650067,14.0144041 L32.8347047,12.3814588 L34.4338675,14.1863853 L32.6628493,15.7910556 L31.0650067,14.0144041 Z M35.6034593,24.6170467 L37.3730073,23.0123764 L39,24.7890279 L37.2023221,26.3932563 L35.6034593,24.6170467 Z M27.6395859,20.6339355 L30.2946505,18.2269302 L32.6918494,20.8913208 L30.0379551,23.298768 L27.6395859,20.6339355 Z" id="Combined-Shape" fill="#9298a8" fill-rule="nonzero"/>
    </g>
</svg>