
<svg xmlns="http://www.w3.org/2000/svg" xmlns:xlink="http://www.w3.org/1999/xlink" width="48px" height="48px" viewBox="0 0 48 48" version="1.1">
    <!-- Generator: Sketch 53 (72520) - https://sketchapp.com -->
    <title>Pay/White/beeline</title>
    <desc>Created with Sketch.</desc>
    <defs>
        <path d="M9.00077922,23.9701935 C9.00077922,32.1940645 15.7098701,38.8602581 23.9875325,38.8602581 C32.2628571,38.8602581 38.9729221,32.1942581 38.9729221,23.9701935 C38.9729221,15.7470968 32.2630519,9.08090323 23.9875325,9.08090323 C15.7096753,9.08090323 9.00077922,15.7470968 9.00077922,23.9701935" id="path-1"/>
        <path d="M35.9306809,19.0499787 C35.9306809,14.1170213 31.931617,10.117383 26.9980851,10.117383 C22.0651277,10.117383 18.0664468,14.1168298 18.0664468,19.0499787 C18.0664468,23.9833191 22.0651277,27.982383 26.9980851,27.982383 C31.931617,27.982383 35.9306809,23.9833191 35.9306809,19.0499787" id="path-3"/>
        <path d="M23.9875325,38.8602581 C32.2628571,38.8602581 38.9729221,32.1942581 38.9729221,23.9701935 C38.9729221,15.7470968 32.2630519,9.08090323 23.9875325,9.08090323 C15.7096753,9.08090323 9.00077922,15.7470968 9.00077922,23.9701935 C9.00077922,32.1940645 15.7098701,38.8602581 23.9875325,38.8602581 Z" id="path-5"/>
    </defs>
    <g id="Pay/White/beeline" stroke="none" stroke-width="1" fill="none" fill-rule="evenodd">
        <mask id="mask-2" fill="white">
            <use xlink:href="#path-1"/>
        </mask>
        <g id="SVGID_1_"/>
        <mask id="mask-4" fill="white">
            <use xlink:href="#path-3"/>
        </mask>
        <g id="Shape"/>
        <mask id="mask-6" fill="white">
            <use xlink:href="#path-5"/>
        </mask>
        <g id="SVGID_6_"/>
        <path d="M38.9721429,14.4236129 L9,14.4236129 L9,9.08303226 L38.9721429,9.08303226 L38.9721429,14.4236129 L38.9721429,14.4236129 Z M38.9721429,33.5405806 L9.00038961,33.5405806 L9.00038961,38.8544516 L38.9721429,38.8544516 L38.9721429,33.5405806 L38.9721429,33.5405806 Z M38.9721429,20.7954194 L9.00038961,20.7954194 L9.00038961,27.1681935 L38.9721429,27.1681935 L38.9721429,20.7954194 L38.9721429,20.7954194 Z" id="Shape" fill="#9298a8" fill-rule="nonzero" mask="url(#mask-6)"/>
    </g>
</svg>