
<svg xmlns="http://www.w3.org/2000/svg" xmlns:xlink="http://www.w3.org/1999/xlink" width="48px" height="48px" viewBox="0 0 48 48" version="1.1">
    <!-- Generator: Sketch 53 (72520) - https://sketchapp.com -->
    <title>Pay/White/megafon</title>
    <desc>Created with Sketch.</desc>
    <g id="Pay/White/megafon" stroke="none" stroke-width="1" fill="none" fill-rule="evenodd">
        <path d="M21.2597637,21.8099338 C22.2804726,21.8099338 23.1405142,20.9583411 23.1405142,19.9043306 C23.1405142,18.8491223 22.2804726,17.9975297 21.2597637,17.9975297 C20.2201529,17.9975297 19.3801946,18.8491223 19.3801946,19.9043306 C19.3801946,20.9583411 20.2201529,21.8099338 21.2597637,21.8099338 Z M21.2597637,8.22397724 C22.099722,8.08144627 22.9798471,8 23.8800556,8 C24.2604587,8 24.6408617,8.02155931 25,8.04072314 L25,24.3239885 C25,24.4461579 25,24.5671295 24.8405142,24.5671295 L22.699861,24.5479657 C21.9603197,24.5479657 21.4605976,25.0737733 21.4605976,25.9876483 L21.4605976,40 C21.4003947,39.9784407 21.3200139,39.9784407 21.2597637,39.9592769 C13.7391244,38.6812891 8,32.0709661 8,24.101209 C8,16.1122881 13.7391244,9.5007673 21.2597637,8.22397724 L21.2597637,8.22397724 Z" id="path3206" fill="#9298a8" fill-rule="nonzero"/>
        <path d="M35.2800272,28.7869518 C34.3591698,28.7869518 33.6153113,29.5556894 33.6153113,30.5073459 C33.6153113,31.4578069 34.3591698,32.2074157 35.2800272,32.2074157 C36.1812181,32.2074157 36.9250766,31.4578069 36.9250766,30.5073459 C36.9250766,29.5556894 36.1812181,28.7869518 35.2800272,28.7869518 Z M26.3097652,32.2074157 C27.2306227,32.2074157 27.9744811,31.4578069 27.9744811,30.5073459 C27.9744811,29.5556894 27.2306227,28.7869518 26.3097652,28.7869518 C25.4085743,28.7869518 24.6647159,29.5556894 24.6647159,30.5073459 C24.6647159,31.4578069 25.4085743,32.2074157 26.3097652,32.2074157 Z M30.7948962,38.6024039 C29.4043552,39.2503912 27.8958149,39.6951352 26.3097652,39.8780541 C25.7024158,39.9593514 25.0753998,40 24.4495407,40 C23.9590337,40 23.4696836,39.9796279 23,39.9390749 L23,26.49872 C23,26.3779696 23,26.2572192 23.136509,26.2572192 L25.2523988,26.2572192 C25.7417489,26.2572192 26.1339231,26.0121318 26.3097652,25.5877122 C26.408098,25.3653402 26.4462742,25.1226438 26.4462742,24.8392989 L26.4462742,8 C27.9744811,8.22117645 29.4436883,8.64679167 30.7948962,9.27445457 C32.4596121,10.0431922 33.987819,11.1167946 35.2800272,12.4115735 C38.1791085,15.3454492 40,19.4139003 40,23.9486153 C40,28.4414861 38.1791085,32.5314571 35.2800272,35.4665284 C33.987819,36.7613073 32.4596121,37.8337142 30.7948962,38.6024518 L30.7948962,38.6024039 Z M29.1498469,30.5073459 C29.1498469,31.4578069 29.8740388,32.2074157 30.7948962,32.2074157 C31.7157537,32.2074157 32.4596121,31.4578069 32.4596121,30.5073459 C32.4596121,29.5556894 31.7157537,28.7869518 30.7948962,28.7869518 C29.8740388,28.7869518 29.1498469,29.5556894 29.1498469,30.5073459 L29.1498469,30.5073459 Z" id="path3208" fill="#9298a8" fill-rule="nonzero"/>
    </g>
</svg>