
<svg xmlns="http://www.w3.org/2000/svg" xmlns:xlink="http://www.w3.org/1999/xlink" width="48px" height="48px" viewBox="0 0 48 48" version="1.1">
    <!-- Generator: Sketch 53 (72520) - https://sketchapp.com -->
    <title>Pay/White/visa</title>
    <desc>Created with Sketch.</desc>
    <g id="Pay/White/visa" stroke="none" stroke-width="1" fill="none" fill-rule="evenodd">
        <polygon id="polygon9" fill="#9298a8" fill-rule="nonzero" points="20.0761338 29 17 29 18.9240345 18 22 18"/>
        <path d="M31,17.4945524 C30.4082142,17.2595127 29.4695931,17 28.3089908,17 C25.3461244,17 23.2596981,18.5817137 23.246901,20.8430879 C23.2222911,22.5115248 24.7407212,23.4382152 25.8763854,23.994525 C27.0371518,24.5629893 27.4317303,24.9340268 27.4317303,25.4407336 C27.4199176,26.2189433 26.4937655,26.5776622 25.6299584,26.5776622 C24.4321132,26.5776622 23.7902873,26.3927183 22.8149154,25.9597591 L22.4198447,25.7741582 L22,28.3817684 C22.7036787,28.7027101 24.0001276,28.9875171 25.3461244,29 C28.4942212,29 30.5437327,27.4427594 30.5680144,25.0329045 C30.5799912,23.7105393 29.7782011,22.6972899 28.0496026,21.8693129 C27.000237,21.3378045 26.3575908,20.9794142 26.3575908,20.4355872 C26.3698957,19.941199 26.9011412,19.4348207 28.0856971,19.4348207 C29.061069,19.4100192 29.7777089,19.6447304 30.320603,19.8796058 L30.5919681,20.0029565 L31,17.4945524 L31,17.4945524 L31,17.4945524 Z" id="path11" fill="#9298a8" fill-rule="nonzero"/>
        <path d="M34.7428793,25.1031913 C34.9953367,24.471247 35.9667779,22.0254373 35.9667779,22.0254373 C35.9540377,22.0489233 36.2187324,21.3818277 36.3701062,20.9723004 L36.5843429,21.9201391 C36.5843429,21.9201391 37.1648608,24.5532147 37.2909218,25.1031913 C36.8118228,25.1031913 35.3483747,25.1031913 34.7428793,25.1031913 L34.7428793,25.1031913 Z M38.5268901,18 L36.1557019,18 C35.4244807,18 34.8689404,18.1987755 34.5534525,18.9126875 L30,29 L33.2165684,29 C33.2165684,29 33.7461254,27.6423229 33.8599491,27.3499145 C34.2128195,27.3499145 37.3418827,27.3499145 37.7958366,27.3499145 C37.8838446,27.7361113 38.1616148,29 38.1616148,29 L41,29 L38.5268901,18 L38.5268901,18 L38.5268901,18 Z" id="path13" fill="#9298a8" fill-rule="nonzero"/>
        <path d="M14.7015011,18 L11.64659,25.5089102 L11.3127656,23.9860154 C10.7479763,22.228793 8.97667711,20.3196082 7,19.3703096 L9.79818875,29 L13.0968582,29 L18,18 L14.7015011,18 L14.7015011,18 L14.7015011,18 Z" id="path15" fill="#9298a8" fill-rule="nonzero"/>
        <path d="M9.35597802,18 L4.05423912,18 L4,18.2229967 C8.1356879,19.1388593 10.8746734,21.346511 12,24 L10.8474637,18.9277224 C10.6577169,18.2228406 10.0746013,18.0232516 9.35597802,18 L9.35597802,18 Z" id="path17" fill="#9298a8" fill-rule="nonzero"/>
    </g>
</svg>