
<svg xmlns="http://www.w3.org/2000/svg" xmlns:xlink="http://www.w3.org/1999/xlink" width="48px" height="48px" viewBox="0 0 48 48" version="1.1">
    <!-- Generator: Sketch 53 (72520) - https://sketchapp.com -->
    <title>Pay/White/mastercard</title>
    <desc>Created with Sketch.</desc>
    <g id="Pay/White/mastercard" stroke="none" stroke-width="1" fill="none" fill-rule="evenodd">
        <path d="M18.9202857,24.0411481 C18.9182892,20.3777513 20.6068468,16.9166102 23.5,14.6538239 C18.587561,10.8156898 11.5383967,11.3790172 7.30348763,15.9481532 C3.06857856,20.5172891 3.06857856,27.5594591 7.30348763,32.1285951 C11.5383967,36.697731 18.587561,37.2610584 23.5,33.4229243 C20.6083854,31.1613405 18.92,27.7025978 18.9202857,24.0411481 Z" id="_Path_" fill="#9298a8" fill-rule="nonzero"/>
        <path d="M42.8941429,24.0411481 C42.9006131,28.6140295 40.2812241,32.7881007 36.1508931,34.7867091 C32.0205622,36.7853176 27.1063722,36.2566383 23.5,33.4256983 C26.3941605,31.1644639 28.0844487,27.7043762 28.0844487,24.0411481 C28.0844487,20.37792 26.3941605,16.9178324 23.5,14.656598 C27.1063439,11.8239533 32.0216962,11.294275 36.1530738,13.2931028 C40.2844515,15.2919307 42.9042435,19.4672347 42.8969286,24.0411481 L42.8941429,24.0411481 Z" id="Shape" fill="#9298a8" fill-rule="nonzero"/>
    </g>
</svg>