
<svg xmlns="http://www.w3.org/2000/svg" xmlns:xlink="http://www.w3.org/1999/xlink" width="48px" height="48px" viewBox="0 0 48 48" version="1.1">
    <!-- Generator: Sketch 53 (72520) - https://sketchapp.com -->
    <title>Pay/White/privat24</title>
    <desc>Created with Sketch.</desc>
    <g id="Pay/White/privat24" stroke="none" stroke-width="1" fill="none" fill-rule="evenodd">
        <path d="M39.8152,39.8699187 C34.588,39.8699187 29.4136,39.8699187 24.16,39.8699187 C23.896,38.595122 24.0808,37.3463415 24.028,36.1235772 C23.9488,33.3138211 23.4472,30.6081301 21.784,28.2406504 C19.5928,25.1186992 16.2928,23.9219512 12.6232,23.6357724 C11.092,23.5056911 9.5344,23.5837398 8.0032,23.5837398 C7.4488,23.5837398 7.0792,23.5056911 7.0792,22.8292683 C7.1056,17.9902439 7.0792,13.1252033 7.0792,8.18211382 C18.0352,8.18211382 28.8592,8.18211382 39.8152,8.18211382 C39.8152,18.6926829 39.8152,29.203252 39.8152,39.8699187 Z M33.136,33.2878049 C33.136,26.9918699 33.136,20.7739837 33.136,14.5560976 C27.3808,14.5560976 21.7576,14.5560976 16.108,14.5560976 C13.6264,14.5560976 13.6264,14.5560976 13.7584,17.001626 C13.7584,17.0796748 13.8376,17.1577236 13.8904,17.2617886 C17.1904,17.6780488 20.3056,18.6146341 23.104,20.4878049 C27.328,23.3235772 29.4928,27.4081301 30.3112,32.2471545 C30.496,33.2878049 30.8656,33.6 31.816,33.4699187 C32.2384,33.3918699 32.7136,33.5479675 33.136,33.2878049 Z" id="Shape" fill="#9298a8" fill-rule="nonzero"/>
        <path d="M7.1056,27.5642276 C11.3824,27.5642276 15.5272,27.5642276 19.7512,27.5642276 C19.7512,31.6747967 19.7512,35.7073171 19.7512,39.8699187 C15.58,39.8699187 11.4088,39.8699187 7.1056,39.8699187 C7.1056,35.8113821 7.1056,31.7528455 7.1056,27.5642276 Z" id="Shape" fill="#9298a8" fill-rule="nonzero"/>
    </g>
</svg>