
<svg xmlns="http://www.w3.org/2000/svg" xmlns:xlink="http://www.w3.org/1999/xlink" width="48px" height="48px" viewBox="0 0 48 48" version="1.1">
    <!-- Generator: Sketch 53 (72520) - https://sketchapp.com -->
    <title>Pay/White/qiwi</title>
    <desc>Created with Sketch.</desc>
    <g id="Pay/White/qiwi" stroke="none" stroke-width="1" fill="none" fill-rule="evenodd">
        <path d="M36.2586016,31.2012894 C36.3548005,31.8408389 36.1517141,32.1115815 35.9464899,32.1115815 C35.7412657,32.1115815 35.4419804,31.851498 35.1127666,31.3355948 C34.7835528,30.8196916 34.6681142,30.2462289 34.8284456,29.9499043 C34.9531922,29.7372761 35.2241667,29.6610108 35.4419804,29.7772259 C35.9871072,29.9818818 36.2008823,30.8154279 36.2586016,31.1991576 L36.2586016,31.2012894 Z M33.2379582,32.6040346 C33.8921103,33.1561789 34.093059,33.8127831 33.7446054,34.2753905 C33.5311289,34.5385002 33.2050393,34.6848737 32.8659894,34.6697793 C32.5002155,34.669632 32.1461151,34.541362 31.8655215,34.307368 C31.2712265,33.7893329 31.0959308,32.9472594 31.4850016,32.4697292 C31.6601016,32.2724361 31.9159524,32.1656689 32.179771,32.1798001 C32.5711907,32.1925518 32.9456976,32.3419397 33.2379582,32.6019027 L33.2379582,32.6040346 Z M32.1434292,37.9336134 C34.963124,37.9336134 38.022247,38.8972013 41.408446,41.8902928 C41.7483485,42.190881 42.1994142,41.8178105 41.9044044,41.44474 C38.5759247,37.2535592 35.4911487,36.4562542 32.4277502,35.7825954 C28.6738579,34.9533129 26.7413302,32.8449315 25.3881332,30.5318943 C25.1209142,30.0714187 25.0012001,30.1524283 24.9755471,30.7450775 C24.9533995,31.6235672 25.0200057,32.5020487 25.174358,33.3672303 L25.174358,33.3672303 C25.0225776,33.3672303 24.8707972,33.3672303 24.7168791,33.3672303 C19.3449317,33.3672303 14.9901079,29.0244669 14.9901079,23.6673967 C14.9901079,18.3103266 19.3449317,13.9675632 24.7168791,13.9675632 C30.0888265,13.9675632 34.4436503,18.3103266 34.4436503,23.6673967 C34.4447281,24.0441852 34.4240288,24.4207225 34.3816555,24.7951356 C33.35692,24.6669284 32.3214269,24.6476336 31.292604,24.7375762 C30.9227729,24.7695536 30.9762167,24.9507593 31.2541244,24.9912641 C34.4607523,25.5711223 36.677601,27.549462 37.1842482,31.1735756 C37.1902258,31.2095788 37.2175164,31.2383617 37.2532286,31.2463278 C37.2889408,31.254294 37.3259276,31.2398491 37.3467174,31.2098167 C40.7769212,25.4915613 39.9134696,18.1864289 35.2440258,13.4202398 C30.5745821,8.65405081 23.2712449,7.62318823 17.4588207,10.9098666 C11.6463965,14.1965449 8.78388867,20.9757599 10.4879952,27.4187209 C12.1921018,33.8616818 18.0350671,38.3511113 24.7168791,38.3514524 C26.8653198,38.3471887 29.0052094,37.9293498 32.1434292,37.9293498 L32.1434292,37.9336134 Z" id="Shape" fill="#9298a8" fill-rule="nonzero"/>
    </g>
</svg>